Patient4_TMGait_0pt4_02_right_18_GRF.mot
version=1
nRows=26
nColumns=19
inDegrees=no
endheader
time	F1x	F1y	F1z	M1x	M1y	M1z	F2x	F2y	F2z	M2x	M2y	M2z	EC1x	EC1y	EC1z	EC2x	EC2y	EC2z
23.43	11.6297	755.176	44.555	-252.1521	-42.4556	813.7211	14.1356	9.6466	-7.4144	3.745	1.3054	6.5037	-0.0592	0.0182	-0.0073	-0.0462	0.0165	0.9585
23.4436	9.0868	762.7563	46.0524	-253.9499	-44.519	820.8569	9.3498	6.821	-5.0416	2.6493	1.005	4.8869	-0.0592	0.0182	-0.0073	-0.0462	0.0165	0.9585
23.4573	6.5628	771.2108	47.3928	-255.9236	-46.4852	828.686	5.3262	4.4385	-3.0106	1.7282	0.72425	3.5092	-0.0592	0.0182	-0.0073	-0.0462	0.0165	0.9585
23.4709	4.3022	779.6211	48.492	-257.8208	-48.2014	836.233	2.292	2.6417	-1.4495	1.0361	0.48935	2.4596	-0.0592	0.0182	-0.0073	-0.0462	0.0165	0.9585
23.4846	2.489	786.9704	49.307	-259.3594	-49.5577	842.4033	0.20367	1.4216	-0.36616	0.56796	0.31864	1.7462	-0.0592	0.0182	-0.0073	-0.0462	0.0165	0.9585
23.4982	1.2406	792.3385	49.7857	-260.2868	-50.4502	846.2074	-1.0827	0.67835	0.30581	0.28502	0.20507	1.3063	-0.0592	0.0182	-0.0073	-0.0462	0.0165	0.9585
23.5119	0.59508	795.0859	49.8885	-260.4365	-50.7996	846.9691	-1.771	0.28146	0.65282	0.13466	0.14829	1.0601	-0.0592	0.0182	-0.0073	-0.0462	0.0165	0.9585
23.5255	0.55932	794.9428	49.5795	-259.7564	-50.5428	844.4044	-2.0671	0.077806	0.77356	0.057755	0.14275	0.897	-0.0592	0.0182	-0.0073	-0.0462	0.0165	0.9585
23.5391	1.0838	792.008	48.8732	-258.2956	-49.6839	838.6346	-2.1401	-0.086897	0.7415	-0.0037881	0.19429	0.69153	-0.0592	0.0182	-0.0073	-0.0462	0.0165	0.9585
23.5528	2.118	786.6568	47.8438	-256.1753	-48.2956	830.0861	-2.1197	-0.34002	0.62064	-0.099306	0.29943	0.33558	-0.0592	0.0182	-0.0073	-0.0462	0.0165	0.9585
23.5664	3.6088	779.4531	46.6293	-253.5612	-46.5226	819.4055	-2.0784	-0.8055	0.4483	-0.2749	0.45401	-0.29086	-0.0592	0.0182	-0.0073	-0.0462	0.0165	0.9585
23.5801	5.4934	771.0752	45.3767	-250.6444	-44.5254	807.3645	-2.0623	-1.5728	0.25797	-0.56574	0.64335	-1.2706	-0.0592	0.0182	-0.0073	-0.0462	0.0165	0.9585
23.5937	7.7388	762.2468	44.2252	-247.628	-42.4549	794.7665	-2.0585	-2.6785	0.066329	-0.9882	0.84641	-2.6478	-0.0592	0.0182	-0.0073	-0.0462	0.0165	0.9585
23.6074	10.3166	753.7243	43.283	-244.7283	-40.4327	782.4468	-2.0154	-4.0865	-0.10456	-1.5291	1.0165	-4.3836	-0.0592	0.0182	-0.0073	-0.0462	0.0165	0.9585
23.621	13.2272	746.238	42.646	-242.1579	-38.5633	771.2038	-1.853	-5.6445	-0.22485	-2.1287	1.0824	-6.2903	-0.0592	0.0182	-0.0073	-0.0462	0.0165	0.9585
23.6346	16.4439	740.4034	42.3931	-240.0964	-36.9416	761.7121	-1.4317	-7.0305	-0.24667	-2.6614	0.93426	-7.981	-0.0592	0.0182	-0.0073	-0.0462	0.0165	0.9585
23.6483	19.9254	736.6503	42.5901	-238.6653	-35.6574	754.4475	-0.58908	-7.693	-0.095284	-2.9157	0.42589	-8.7903	-0.0592	0.0182	-0.0073	-0.0462	0.0165	0.9585
23.6619	23.6185	735.16	43.2508	-237.9096	-34.7509	749.6246	0.85073	-6.8188	0.32451	-2.5795	-0.61368	-7.7416	-0.0592	0.0182	-0.0073	-0.0462	0.0165	0.9585
23.6756	27.4337	735.7973	44.3659	-237.7729	-34.2489	747.1559	3.0465	-3.2914	1.1249	-1.2256	-2.3655	-3.4991	-0.0592	0.0182	-0.0073	-0.0462	0.0165	0.9585
23.6892	31.2702	738.0249	45.8801	-238.0712	-34.1372	746.5302	6.0837	4.2665	2.4039	1.6734	-4.9644	5.5722	-0.0592	0.0182	-0.0073	-0.0462	0.0165	0.9585
23.7029	34.9769	740.8834	47.7132	-238.4832	-34.3926	746.8234	9.8967	17.3327	4.234	6.6854	-8.4549	21.2213	-0.0592	0.0182	-0.0073	-0.0462	0.0165	0.9585
23.7165	38.3783	742.9985	49.7111	-238.559	-34.9304	746.6949	14.1436	37.2068	6.6019	14.3099	-12.681	44.9894	-0.0592	0.0182	-0.0073	-0.0462	0.0165	0.9585
23.7301	41.2613	742.6655	51.6544	-237.7532	-35.6106	744.4834	18.0915	64.5216	9.3454	24.7911	-17.1693	77.6109	-0.0592	0.0182	-0.0073	-0.0462	0.0165	0.9585
23.7438	43.3964	738.0785	53.2613	-235.499	-36.2431	738.4404	20.4908	98.5405	12.0544	37.8468	-20.9702	118.179	-0.0592	0.0182	-0.0073	-0.0462	0.0165	0.9585
23.7574	44.5707	727.6273	54.2661	-231.3038	-36.6492	727.0103	20.1261	136.8151	14.0227	52.5024	-22.7958	163.8164	-0.0592	0.0182	-0.0073	-0.0462	0.0165	0.9585
23.7711	44.6344	710.3321	54.4636	-224.8858	-36.6914	709.2546	16.4472	174.6691	14.4718	66.9141	-21.5703	209.0424	-0.0592	0.0182	-0.0073	-0.0462	0.0165	0.9585
